<svg xmlns="http://www.w3.org/2000/svg" height="40" width="40"><path d="M26 17.958q.958 0 1.646-.666.687-.667.687-1.667 0-.958-.687-1.646-.688-.687-1.646-.687t-1.646.687q-.687.688-.687 1.646 0 1 .687 1.667.688.666 1.646.666Zm-12 0q.958 0 1.646-.666.687-.667.687-1.667 0-.958-.687-1.646-.688-.687-1.646-.687t-1.646.687q-.687.688-.687 1.646 0 1 .687 1.667.688.666 1.646.666Zm6 11.167q2.792 0 5.104-1.521 2.313-1.521 3.354-4.062h-2.375q-.958 1.625-2.562 2.52-1.604.896-3.521.896-1.875 0-3.5-.896-1.625-.895-2.542-2.52h-2.416q1.083 2.541 3.375 4.062 2.291 1.521 5.083 1.521Zm0 7.542q-3.458 0-6.5-1.313-3.042-1.312-5.292-3.562T4.646 26.5Q3.333 23.458 3.333 20t1.313-6.5q1.312-3.042 3.562-5.292T13.5 4.646q3.042-1.313 6.5-1.313t6.5 1.313q3.042 1.312 5.292 3.562t3.562 5.292q1.313 3.042 1.313 6.5t-1.313 6.5q-1.312 3.042-3.562 5.292T26.5 35.354q-3.042 1.313-6.5 1.313ZM20 20Zm0 13.875q5.833 0 9.854-4.021 4.021-4.021 4.021-9.854 0-5.833-4.021-9.854Q25.833 6.125 20 6.125q-5.833 0-9.854 4.021Q6.125 14.167 6.125 20q0 5.833 4.021 9.854 4.021 4.021 9.854 4.021Z"/></svg>