<?xml version="1.0" standalone="no"?>
<!DOCTYPE svg PUBLIC "-//W3C//DTD SVG 20010904//EN"
 "http://www.w3.org/TR/2001/REC-SVG-20010904/DTD/svg10.dtd">
<svg version="1.0" xmlns="http://www.w3.org/2000/svg"
 width="809.000000pt" height="435.000000pt" viewBox="0 0 809.000000 435.000000"
 preserveAspectRatio="xMidYMid meet">

<g transform="translate(0.000000,435.000000) scale(0.100000,-0.100000)"
fill="#000000" stroke="none">
<path d="M5900 3683 c-331 -23 -616 -216 -646 -436 -8 -58 -1 -88 32 -127 49
-58 96 -75 209 -74 83 1 111 5 167 27 84 32 170 90 226 151 124 135 85 270
-78 268 -92 -2 -187 -44 -288 -130 -60 -50 -155 -179 -145 -195 4 -7 15 0 27
17 51 70 98 122 148 163 166 137 378 154 378 30 0 -125 -271 -297 -468 -297
-79 0 -138 30 -167 84 -53 99 62 282 239 381 128 72 265 105 429 105 128 0
212 -17 295 -59 91 -46 92 -51 25 -101 -113 -84 -188 -157 -358 -345 -268
-297 -342 -356 -491 -391 -111 -26 -258 -8 -272 34 -2 6 4 12 12 12 24 0 41
43 27 69 -17 30 -66 32 -88 3 -21 -26 -15 -68 13 -101 81 -97 346 -75 547 45
129 77 193 139 339 327 13 18 19 20 29 10 7 -7 34 -13 59 -13 55 0 70 -13 70
-58 0 -105 -163 -288 -288 -321 -90 -25 -98 24 -17 105 54 55 161 114 205 114
12 0 20 7 20 16 0 35 -119 -6 -205 -71 -73 -55 -107 -102 -103 -145 4 -51 41
-67 120 -52 125 23 231 95 278 189 32 63 40 171 16 208 -16 24 -16 26 1 31
108 37 171 82 204 147 33 63 35 124 6 179 -27 54 -31 47 63 103 36 21 67 40
69 41 1 1 0 7 -3 13 -6 9 -90 -33 -147 -73 -19 -13 -25 -12 -65 19 -91 70
-263 110 -424 98z m474 -236 c-1 -56 -35 -119 -101 -188 -64 -68 -102 -87
-139 -70 -14 6 -36 11 -50 11 -14 0 -24 4 -22 10 7 21 167 195 227 246 72 62
87 60 85 -9z"/>
<path d="M1384 3650 c-190 -49 -305 -161 -306 -295 -1 -73 32 -124 105 -162
50 -27 58 -28 187 -27 90 0 153 6 188 16 29 8 51 12 50 7 -9 -25 -181 -229
-235 -278 -110 -101 -233 -151 -372 -151 -104 0 -161 30 -161 84 0 13 3 14 18
5 44 -28 96 16 72 61 -15 28 -80 28 -106 -1 -23 -26 -26 -98 -4 -124 31 -37
98 -57 189 -56 108 1 181 19 301 77 83 40 106 57 185 138 49 50 117 133 150
183 58 87 62 91 115 108 88 27 270 119 339 171 104 78 147 167 101 209 -82 75
-395 -117 -535 -329 -30 -44 -46 -58 -74 -65 -122 -32 -266 -40 -347 -20 -25
7 -62 27 -85 48 -52 46 -63 105 -31 167 46 91 187 187 310 213 29 6 102 11
162 11 91 0 110 3 110 15 0 23 -232 20 -326 -5z m795 -64 c37 -45 -99 -170
-289 -266 -71 -36 -170 -72 -170 -63 0 27 219 255 278 290 85 50 159 66 181
39z"/>
<path d="M2532 3450 c-70 -36 -179 -126 -342 -285 -63 -61 -133 -124 -155
-140 -22 -16 -72 -56 -112 -90 -87 -72 -116 -95 -183 -140 -49 -33 -96 -46
-88 -26 2 6 52 62 111 125 l109 116 -41 0 c-35 0 -51 -9 -118 -63 -47 -39 -78
-71 -78 -83 0 -10 -6 -36 -13 -56 -18 -50 -3 -78 41 -78 33 0 77 25 157 90 25
20 56 44 70 53 14 9 36 25 50 34 22 16 21 13 -9 -30 -37 -54 -51 -118 -31
-142 31 -37 103 -9 226 88 146 116 244 179 244 158 0 -5 -34 -42 -75 -83 -60
-59 -75 -80 -75 -104 0 -53 34 -77 89 -62 45 12 118 53 154 87 22 20 30 23 36
12 13 -20 59 -16 92 8 34 25 34 25 13 -24 -12 -29 -13 -44 -5 -62 17 -37 66
-31 133 16 l56 39 11 -39 c19 -63 62 -61 166 10 l30 21 5 -32 c8 -49 32 -57
85 -29 54 28 163 126 153 136 -4 4 -40 -17 -80 -48 -84 -63 -115 -80 -122 -69
-5 9 38 64 143 181 l63 71 -40 0 c-32 0 -42 -4 -47 -21 l-7 -21 -15 22 c-36
51 -191 -4 -307 -110 -38 -34 -89 -75 -114 -91 -45 -28 -87 -39 -80 -20 2 6
52 62 111 125 l109 116 -41 0 c-35 0 -52 -9 -118 -62 -87 -70 -132 -98 -158
-98 -12 0 -2 16 33 54 55 61 67 89 46 107 -12 10 -22 4 -54 -30 -22 -23 -46
-57 -54 -75 -16 -38 -56 -71 -140 -115 -56 -30 -106 -40 -106 -22 0 4 27 32
60 60 67 58 90 95 90 140 0 71 -74 56 -187 -37 -34 -29 -65 -52 -68 -52 -3 0
-36 -23 -73 -51 -82 -63 -128 -87 -143 -72 -11 11 31 70 148 207 61 71 79 85
168 131 124 63 168 91 272 172 124 96 162 154 124 192 -28 28 -47 26 -119 -9z
m98 -25 c0 -22 -72 -97 -144 -151 -68 -51 -276 -177 -282 -171 -8 8 275 277
322 307 52 33 104 40 104 15z m470 -467 c0 -38 -171 -183 -237 -203 -72 -21
41 124 152 194 59 37 85 40 85 9z"/>
<path d="M1910 3150 c-24 -24 -25 -34 -5 -54 17 -17 43 -12 63 12 16 20 15 27
-4 46 -20 21 -30 20 -54 -4z"/>
<path d="M2890 3150 c-24 -24 -25 -34 -5 -54 17 -17 43 -12 63 12 16 20 15 27
-4 46 -20 21 -30 20 -54 -4z"/>
<path d="M6820 3045 c-7 -8 -10 -27 -7 -43 4 -24 -3 -33 -56 -77 -34 -27 -65
-49 -70 -47 -5 1 -30 -15 -55 -36 -63 -52 -124 -92 -139 -92 -29 0 -8 35 78
127 118 127 121 133 72 133 -33 0 -45 -7 -88 -52 -108 -111 -266 -221 -288
-199 -6 6 25 45 97 120 58 61 106 115 106 121 0 5 -18 10 -39 10 -35 0 -50 -9
-116 -67 -44 -38 -74 -72 -71 -79 3 -7 -1 -26 -9 -41 -20 -38 -19 -67 4 -87
27 -24 66 -14 133 33 29 20 58 40 63 43 7 4 9 -7 7 -31 -8 -86 62 -80 178 15
43 35 83 64 88 64 5 0 40 25 79 55 66 51 93 65 93 48 0 -3 -29 -37 -65 -74
-58 -60 -65 -71 -65 -108 0 -75 64 -78 165 -6 l50 35 7 -26 c15 -57 61 -79
111 -53 16 8 12 1 -13 -25 -20 -22 -51 -41 -75 -47 -49 -13 -175 -80 -225
-119 -76 -60 -84 -130 -14 -130 71 0 162 60 294 194 35 36 69 66 75 66 40 0
252 127 299 179 37 41 6 33 -59 -16 -70 -53 -225 -140 -225 -127 0 5 69 74
153 155 l152 148 -37 0 c-25 1 -41 -5 -48 -16 -8 -14 -12 -15 -17 -5 -10 26
-50 32 -108 17 -81 -21 -139 -54 -240 -136 -88 -71 -180 -123 -198 -112 -5 3
32 47 82 98 50 51 91 97 91 102 0 20 -46 52 -67 47 -18 -5 -22 -1 -25 23 -4
33 -37 43 -58 18z m490 -77 c0 -21 -142 -153 -200 -186 -111 -64 -122 -26 -22
70 37 36 90 80 117 97 49 31 105 41 105 19z m-382 -414 c-91 -86 -132 -114
-165 -114 -37 0 -27 25 28 73 51 45 178 117 205 117 7 0 -23 -34 -68 -76z"/>
<path d="M3595 3001 c-44 -20 -165 -116 -165 -131 0 -19 16 -10 95 49 75 57
115 78 115 61 0 -4 -34 -41 -75 -82 -60 -59 -75 -80 -75 -104 0 -53 34 -77 89
-62 45 12 118 53 154 87 18 16 30 22 35 15 11 -17 35 -22 58 -13 20 7 22 4 21
-27 -3 -91 90 -88 204 7 31 25 53 36 66 33 23 -6 88 25 158 77 60 44 112 72
127 67 6 -2 -39 -58 -100 -123 l-110 -120 41 -3 c37 -3 45 1 96 51 125 121
242 202 279 195 12 -3 -4 -24 -60 -77 -80 -75 -99 -112 -78 -150 14 -27 58
-27 109 -2 60 31 154 112 143 123 -7 7 -28 -4 -63 -32 -60 -47 -120 -80 -146
-80 -12 0 9 25 59 73 76 73 96 107 83 146 -7 24 -43 36 -79 27 -13 -3 -47 -21
-75 -40 l-51 -35 0 28 c0 80 -80 64 -215 -44 -42 -34 -102 -62 -111 -52 -3 3
6 21 20 40 29 38 34 88 11 107 -32 27 -164 -22 -237 -87 -58 -53 -89 -73 -111
-73 -15 0 -8 12 31 54 55 61 67 89 46 107 -12 10 -22 4 -54 -30 -22 -23 -46
-57 -54 -75 -16 -38 -56 -71 -140 -115 -56 -30 -106 -40 -106 -22 0 4 27 32
60 60 33 29 67 66 75 81 21 41 19 87 -4 100 -24 12 -18 13 -66 -9z m541 -25
c13 -33 -59 -123 -139 -177 -62 -41 -107 -51 -107 -23 0 22 146 171 190 195
43 22 49 23 56 5z"/>
<path d="M1987 1594 c-4 -4 -7 -86 -7 -181 0 -161 1 -174 18 -171 13 2 18 16
22 59 6 62 29 104 66 121 34 16 43 0 45 -77 1 -77 11 -109 33 -113 16 -4 17 3
12 75 -4 43 -9 93 -12 110 -8 53 -61 69 -107 33 -14 -11 -28 -20 -31 -20 -3 0
-6 37 -8 82 -3 75 -12 100 -31 82z"/>
<path d="M2506 1588 c-9 -26 -13 -337 -5 -349 7 -11 11 -11 21 -1 18 18 19
353 1 359 -7 3 -15 -1 -17 -9z"/>
<path d="M6277 1594 c-4 -4 -7 -86 -7 -181 0 -161 1 -174 18 -171 13 2 18 16
22 59 6 62 29 104 66 121 34 16 43 0 45 -77 1 -77 11 -109 33 -113 16 -4 17 3
12 75 -4 43 -9 93 -12 110 -8 53 -61 69 -107 33 -14 -11 -28 -20 -31 -20 -3 0
-6 37 -8 82 -3 75 -12 100 -31 82z"/>
<path d="M4049 1571 c-20 -16 -24 -28 -23 -68 2 -44 -1 -51 -28 -69 -96 -63
-86 -179 19 -199 28 -5 60 4 115 33 4 2 13 -8 19 -22 13 -28 39 -35 39 -11 0
9 -6 28 -14 43 -11 22 -12 36 -4 68 11 41 6 74 -11 74 -5 0 -13 -17 -18 -37
l-9 -38 -28 47 -28 48 26 31 c29 35 34 80 10 103 -20 21 -37 20 -65 -3z m41
-45 c0 -24 -16 -43 -27 -32 -8 8 6 56 17 56 6 0 10 -11 10 -24z m-11 -161 c17
-30 31 -57 31 -60 0 -9 -59 -35 -81 -35 -30 0 -59 28 -59 58 0 20 57 92 73 92
3 0 19 -25 36 -55z"/>
<path d="M4633 1568 c-6 -7 -13 -57 -16 -111 -8 -151 -49 -209 -125 -178 -45
19 -62 70 -62 192 0 90 -2 100 -17 97 -15 -3 -18 -17 -21 -101 -3 -113 9 -170
44 -202 34 -32 92 -40 138 -21 55 23 79 83 84 214 4 102 -4 137 -25 110z"/>
<path d="M1513 1551 c-65 -30 -90 -96 -49 -130 8 -7 40 -16 71 -21 64 -10 95
-32 95 -65 0 -33 -34 -57 -88 -63 -41 -3 -52 0 -79 22 -26 22 -33 24 -42 12
-9 -11 -7 -20 12 -41 18 -22 35 -29 75 -33 109 -10 188 55 162 134 -13 40 -42
59 -100 68 -69 11 -80 16 -80 35 0 37 38 56 106 54 49 -2 64 1 64 12 0 13 -57
35 -90 35 -8 0 -34 -9 -57 -19z"/>
<path d="M5914 1559 c-9 -15 12 -33 30 -26 9 4 16 13 16 22 0 17 -35 21 -46 4z"/>
<path d="M5018 1513 c-3 -34 -6 -38 -31 -39 -33 -1 -41 -8 -34 -29 4 -9 19
-15 36 -15 l30 0 3 -97 c3 -84 6 -98 21 -101 15 -3 17 7 17 97 l0 101 30 0
c19 0 33 6 37 16 8 20 -15 36 -44 29 -19 -4 -22 0 -25 32 -2 26 -8 39 -20 41
-13 2 -17 -5 -20 -35z"/>
<path d="M6578 1513 c-3 -34 -6 -38 -31 -39 -33 -1 -41 -8 -34 -29 4 -9 19
-15 36 -15 l30 0 3 -97 c3 -84 6 -98 21 -101 15 -3 17 7 17 97 l0 101 30 0
c19 0 33 6 37 16 8 20 -15 36 -44 29 -19 -4 -22 0 -25 32 -2 26 -8 39 -20 41
-13 2 -17 -5 -20 -35z"/>
<path d="M1803 1470 c-33 -13 -73 -89 -73 -139 0 -83 82 -126 160 -86 17 9 30
20 30 26 0 15 -30 23 -43 10 -16 -16 -73 -14 -91 5 -23 22 -20 76 7 115 24 35
44 40 95 24 38 -12 27 24 -13 41 -39 16 -42 16 -72 4z"/>
<path d="M2250 1465 c-9 -11 -11 -41 -8 -106 4 -82 7 -94 29 -112 19 -15 34
-18 70 -14 26 3 51 1 57 -5 18 -18 25 13 28 128 2 90 0 113 -11 118 -21 8 -24
-3 -31 -102 l-7 -90 -35 -7 c-52 -10 -64 11 -60 107 2 82 -9 111 -32 83z"/>
<path d="M2620 1465 c-9 -11 -11 -41 -8 -106 4 -82 7 -94 29 -112 19 -15 34
-18 70 -14 26 3 51 1 57 -5 18 -18 25 13 28 128 2 90 0 113 -11 118 -21 8 -24
-3 -31 -102 l-7 -90 -35 -7 c-52 -10 -64 11 -60 107 2 82 -9 111 -32 83z"/>
<path d="M2856 1373 c-8 -113 -3 -143 20 -143 10 0 14 13 14 45 0 74 42 155
80 155 24 0 30 -20 30 -103 0 -78 9 -103 33 -94 15 6 16 54 1 173 -9 73 -64
94 -114 44 -18 -18 -19 -18 -22 3 -2 12 -10 23 -19 25 -14 2 -17 -13 -23 -105z"/>
<path d="M3586 1373 c-8 -113 -3 -143 20 -143 10 0 14 13 14 45 0 74 42 155
80 155 24 0 30 -20 30 -103 0 -78 9 -103 33 -94 15 6 16 54 1 173 -9 73 -64
94 -114 44 -18 -18 -19 -18 -22 3 -2 12 -10 23 -19 25 -14 2 -17 -13 -23 -105z"/>
<path d="M4726 1373 c-8 -113 -3 -143 20 -143 10 0 14 13 14 45 0 74 42 155
80 155 24 0 30 -20 30 -103 0 -78 9 -103 33 -94 15 6 16 54 1 173 -9 73 -64
94 -114 44 -18 -18 -19 -18 -22 3 -2 12 -10 23 -19 25 -14 2 -17 -13 -23 -105z"/>
<path d="M6093 1470 c-33 -13 -73 -89 -73 -139 0 -83 82 -126 160 -86 17 9 30
20 30 26 0 15 -30 23 -43 10 -16 -16 -73 -14 -91 5 -23 22 -20 76 7 115 24 35
44 40 95 24 38 -12 27 24 -13 41 -39 16 -42 16 -72 4z"/>
<path d="M3144 1451 c-47 -29 -64 -59 -64 -114 0 -38 5 -53 25 -72 28 -29 85
-34 105 -10 21 26 28 17 20 -27 -11 -60 -41 -81 -102 -73 -39 6 -48 4 -48 -8
0 -23 16 -29 71 -29 93 0 109 26 128 207 l11 100 -26 23 c-31 27 -78 29 -120
3z m98 -26 c3 -3 1 -29 -3 -58 -8 -52 -42 -97 -74 -97 -45 0 -61 87 -24 134
16 20 29 26 58 26 21 0 40 -2 43 -5z"/>
<path d="M3374 1452 c-32 -25 -46 -59 -48 -112 -1 -57 19 -85 76 -102 65 -19
150 17 134 58 -6 15 -8 15 -25 0 -30 -27 -93 -32 -126 -10 l-27 18 76 38 c59
30 77 44 82 65 6 20 2 31 -16 45 -29 23 -98 24 -126 0z m98 -37 c2 -11 -103
-68 -110 -61 -9 10 24 61 47 72 24 13 62 6 63 -11z"/>
<path d="M5224 1452 c-32 -25 -46 -59 -48 -112 -1 -57 19 -85 76 -102 65 -19
150 17 134 58 -6 15 -8 15 -25 0 -30 -27 -93 -32 -126 -10 l-27 18 76 38 c59
30 77 44 82 65 6 20 2 31 -16 45 -29 23 -98 24 -126 0z m98 -37 c2 -11 -103
-68 -110 -61 -9 10 24 61 47 72 24 13 62 6 63 -11z"/>
<path d="M5436 1424 c-8 -59 -8 -158 0 -178 3 -9 12 -16 20 -16 11 0 14 17 14
69 0 60 3 74 26 100 33 40 74 43 74 6 0 -15 6 -25 14 -25 19 0 29 31 20 64 -5
22 -12 26 -43 26 -21 0 -46 -7 -57 -15 -25 -19 -34 -19 -34 0 0 8 -6 15 -14
15 -8 0 -16 -17 -20 -46z"/>
<path d="M5666 1424 c-8 -59 -8 -158 0 -178 3 -9 12 -16 20 -16 11 0 14 17 14
69 0 60 3 74 26 100 33 40 74 43 74 6 0 -15 6 -25 14 -25 19 0 29 31 20 64 -5
22 -12 26 -43 26 -21 0 -46 -7 -57 -15 -25 -19 -34 -19 -34 0 0 8 -6 15 -14
15 -8 0 -16 -17 -20 -46z"/>
<path d="M5916 1458 c-20 -64 -14 -218 10 -218 18 0 21 22 20 129 -1 66 -5 96
-13 98 -7 3 -15 -1 -17 -9z"/>
<path d="M4627 864 c-4 -4 -7 -86 -7 -181 0 -161 1 -174 18 -171 13 2 18 16
22 59 6 62 29 104 66 121 34 16 43 0 45 -77 1 -77 11 -109 33 -113 16 -4 17 3
12 75 -4 43 -9 93 -12 110 -8 53 -61 69 -107 33 -14 -11 -28 -20 -31 -20 -3 0
-6 37 -8 82 -3 75 -12 100 -31 82z"/>
<path d="M5223 860 c-28 -12 -50 -46 -58 -92 -6 -30 -12 -37 -34 -40 -36 -4
-34 -32 2 -36 l28 -3 -2 -102 c-1 -86 1 -102 14 -105 21 -4 26 20 29 128 l3
85 30 3 c17 2 36 5 44 8 25 8 -9 34 -46 34 -33 0 -35 2 -29 28 8 32 40 62 68
62 13 0 18 6 16 18 -4 20 -33 25 -65 12z"/>
<path d="M3100 834 c0 -8 11 -54 25 -102 14 -48 33 -118 43 -157 14 -57 21
-70 37 -70 11 0 21 8 23 18 4 22 81 225 82 215 0 -4 9 -56 21 -115 35 -180 51
-178 130 19 68 169 79 208 56 208 -21 0 -30 -16 -61 -108 -15 -46 -37 -105
-48 -130 l-21 -47 -13 55 c-7 30 -19 90 -25 133 -12 81 -28 103 -54 76 -7 -8
-27 -57 -44 -109 -17 -52 -35 -101 -40 -108 -5 -9 -16 18 -31 80 -12 51 -28
108 -36 126 -13 33 -44 44 -44 16z"/>
<path d="M2604 829 c-9 -15 12 -33 30 -26 9 4 16 13 16 22 0 17 -35 21 -46 4z"/>
<path d="M3594 829 c-9 -15 12 -33 30 -26 9 4 16 13 16 22 0 17 -35 21 -46 4z"/>
<path d="M3988 783 c-3 -34 -6 -38 -31 -39 -33 -1 -41 -8 -34 -29 4 -9 19 -15
36 -15 l30 0 3 -97 c3 -84 6 -98 21 -101 15 -3 17 7 17 97 l0 101 30 0 c19 0
33 6 37 16 8 20 -15 36 -44 29 -19 -4 -22 0 -25 32 -2 26 -8 39 -20 41 -13 2
-17 -5 -20 -35z"/>
<path d="M5398 783 c-3 -34 -6 -38 -31 -39 -33 -1 -41 -8 -34 -29 4 -9 19 -15
36 -15 l30 0 3 -97 c3 -84 6 -98 21 -101 15 -3 17 7 17 97 l0 101 30 0 c19 0
33 6 37 16 8 20 -15 36 -44 29 -19 -4 -22 0 -25 32 -2 26 -8 39 -20 41 -13 2
-17 -5 -20 -35z"/>
<path d="M4222 743 c-85 -30 -96 -103 -19 -124 23 -7 51 -20 61 -30 40 -37
-27 -65 -89 -37 -20 9 -28 9 -37 0 -21 -21 15 -45 76 -50 48 -4 57 -2 80 21
14 15 26 35 26 45 0 33 -39 71 -85 83 -52 13 -51 30 3 53 32 12 39 13 48 0 19
-24 34 -15 34 21 0 32 -3 35 -27 34 -16 0 -47 -7 -71 -16z"/>
<path d="M2716 643 c-8 -113 -3 -143 20 -143 10 0 14 13 14 45 0 74 42 155 80
155 24 0 30 -20 30 -103 0 -78 9 -103 33 -94 15 6 16 54 1 173 -9 73 -64 94
-114 44 -18 -18 -19 -18 -22 3 -2 12 -10 23 -19 25 -14 2 -17 -13 -23 -105z"/>
<path d="M4443 740 c-33 -13 -73 -89 -73 -139 0 -83 82 -126 160 -86 17 9 30
20 30 26 0 15 -30 23 -43 10 -16 -16 -73 -14 -91 5 -23 22 -20 76 7 115 24 35
44 40 95 24 38 -12 27 24 -13 41 -39 16 -42 16 -72 4z"/>
<path d="M2606 728 c-20 -64 -14 -218 10 -218 18 0 21 22 20 129 -1 66 -5 96
-13 98 -7 3 -15 -1 -17 -9z"/>
<path d="M3596 728 c-20 -64 -14 -218 10 -218 18 0 21 22 20 129 -1 66 -5 96
-13 98 -7 3 -15 -1 -17 -9z"/>
<path d="M3706 694 c-8 -59 -8 -158 0 -178 3 -9 12 -16 20 -16 11 0 14 17 14
69 0 60 3 74 26 100 33 40 74 43 74 6 0 -15 6 -25 14 -25 19 0 29 31 20 64 -5
22 -12 26 -43 26 -21 0 -46 -7 -57 -15 -25 -19 -34 -19 -34 0 0 8 -6 15 -14
15 -8 0 -16 -17 -20 -46z"/>
<path d="M4928 724 c-15 -8 -35 -28 -43 -44 -19 -38 -19 -119 0 -147 20 -28
76 -39 115 -23 24 10 33 10 45 0 26 -21 34 -2 19 47 -10 32 -13 67 -9 105 6
50 4 58 -13 67 -29 15 -82 13 -114 -5z m87 -92 c0 -37 -4 -73 -8 -79 -13 -21
-75 -16 -87 6 -13 25 -13 77 1 102 11 22 66 50 83 43 6 -2 11 -34 11 -72z"/>
</g>
</svg>
