<?xml version="1.0" standalone="no"?>
<!DOCTYPE svg PUBLIC "-//W3C//DTD SVG 20010904//EN"
 "http://www.w3.org/TR/2001/REC-SVG-20010904/DTD/svg10.dtd">
<svg version="1.0" xmlns="http://www.w3.org/2000/svg"
 width="874.000000pt" height="511.000000pt" viewBox="0 0 874.000000 511.000000"
 preserveAspectRatio="xMidYMid meet">

<g transform="translate(0.000000,511.000000) scale(0.100000,-0.100000)"
fill="#000000" stroke="none">
<path d="M6470 4340 c-363 -58 -658 -287 -677 -524 -13 -158 103 -244 316
-234 115 6 196 31 297 94 148 91 234 204 234 307 0 46 -4 59 -27 82 -99 99
-296 64 -481 -86 -65 -52 -144 -144 -180 -208 -18 -32 -20 -40 -8 -44 10 -4
30 15 60 57 70 98 182 196 280 246 71 36 96 44 158 48 109 7 158 -23 158 -98
0 -137 -271 -321 -521 -355 -96 -13 -202 33 -234 102 -56 117 71 330 261 440
296 172 705 190 937 43 26 -16 47 -33 47 -37 -1 -5 -38 -36 -83 -70 -125 -94
-221 -187 -410 -397 -280 -311 -331 -358 -462 -423 -89 -44 -149 -57 -260 -58
-101 0 -163 14 -185 40 -10 12 -7 17 14 26 50 23 43 102 -10 115 -41 10 -78
-23 -82 -75 -3 -37 1 -46 35 -80 47 -47 91 -62 208 -68 265 -13 580 163 790
443 33 44 63 83 67 88 4 5 14 3 24 -4 10 -9 38 -14 72 -13 42 1 59 -3 69 -15
60 -80 -100 -327 -266 -410 -64 -32 -133 -42 -146 -21 -35 56 133 206 276 246
45 12 59 21 59 35 0 15 -5 17 -27 12 -137 -30 -253 -101 -324 -198 -37 -49
-38 -94 -4 -126 52 -48 235 -8 347 77 57 44 123 136 139 196 16 61 8 171 -15
196 -15 16 -16 21 -5 25 149 44 236 111 274 210 23 59 16 151 -15 203 -25 43
-30 38 87 106 67 38 92 67 60 67 -13 0 -165 -84 -180 -99 -5 -5 -29 6 -55 25
-110 85 -214 115 -412 119 -80 2 -170 0 -200 -5z m655 -211 c15 -24 5 -112
-18 -162 -28 -61 -129 -174 -180 -202 -34 -18 -36 -18 -101 1 l-66 20 88 99
c85 97 249 255 264 255 4 0 10 -5 13 -11z"/>
<path d="M1235 4326 c-153 -24 -266 -76 -353 -162 -65 -66 -94 -129 -95 -209
-1 -129 93 -212 264 -233 85 -11 211 -1 303 23 32 9 61 14 63 12 8 -8 -174
-232 -248 -306 -148 -149 -336 -224 -516 -208 -78 8 -121 29 -138 70 -14 34
-10 56 8 38 14 -14 52 -14 78 -1 38 21 16 98 -29 101 -41 3 -59 -4 -84 -32
-22 -23 -28 -39 -28 -75 0 -171 327 -194 621 -43 142 73 266 196 395 390 l64
96 68 23 c82 27 252 106 335 157 34 20 88 62 121 93 109 103 126 187 46 220
-133 55 -454 -162 -638 -431 -31 -46 -32 -47 -124 -65 -63 -13 -135 -19 -223
-19 -114 0 -135 3 -175 22 -106 52 -142 132 -105 230 26 67 127 163 218 207
111 55 173 68 337 71 118 2 146 6 148 17 6 29 -166 36 -313 14z m856 -86 c79
-43 -81 -200 -331 -325 -93 -47 -200 -88 -200 -77 0 17 160 200 235 270 78 73
155 117 228 132 23 4 43 8 45 9 2 1 12 -4 23 -9z"/>
<path d="M2534 4075 c-75 -37 -212 -152 -389 -325 -88 -86 -173 -165 -190
-175 -16 -10 -73 -56 -126 -102 -53 -45 -100 -83 -104 -83 -3 0 -39 -25 -78
-56 -72 -56 -104 -76 -144 -88 -47 -15 -21 24 109 160 l132 139 -48 3 c-44 3
-52 0 -119 -54 -114 -91 -138 -116 -126 -130 8 -10 6 -19 -5 -36 -35 -49 -11
-128 39 -128 33 0 101 39 174 100 39 33 75 60 80 60 4 0 33 19 62 42 l54 43
-26 -35 c-69 -92 -86 -163 -48 -201 17 -17 29 -20 56 -16 45 8 129 58 198 120
29 26 57 47 62 47 5 0 45 28 88 61 88 67 141 97 152 85 5 -4 -8 -21 -27 -38
-137 -118 -166 -164 -144 -227 22 -63 111 -48 243 41 52 35 77 46 84 39 18
-18 72 -13 100 9 33 26 42 25 23 -2 -34 -48 -10 -128 38 -128 28 0 78 25 129
64 26 20 49 36 51 36 2 0 6 -14 10 -32 18 -91 90 -88 223 8 20 15 21 14 16 -5
-8 -30 22 -71 53 -71 13 0 41 9 62 19 43 22 182 138 182 151 0 24 -23 16 -72
-23 -89 -73 -140 -107 -160 -107 -10 0 -18 4 -18 8 0 5 56 72 125 150 69 77
125 143 125 146 0 4 -19 6 -43 6 -37 0 -46 -4 -57 -26 -14 -24 -14 -25 -30 -6
-23 28 -45 33 -103 21 -75 -16 -182 -73 -241 -128 -98 -92 -178 -148 -233
-165 -47 -15 -21 24 109 160 l132 139 -48 3 c-46 3 -50 1 -144 -75 -112 -91
-160 -122 -186 -123 -13 0 -5 14 33 56 59 65 83 106 75 128 -18 46 -87 -9
-143 -113 -21 -39 -44 -66 -78 -88 -92 -60 -196 -103 -207 -85 -3 5 29 42 70
83 85 83 104 113 104 162 0 93 -92 75 -231 -45 -39 -34 -78 -63 -85 -64 -8 -1
-35 -20 -62 -42 -68 -57 -142 -102 -169 -102 -42 0 -32 18 101 180 120 147
143 166 250 219 181 88 394 240 462 329 79 104 4 170 -122 107z m111 -25 c24
-39 -126 -175 -320 -292 -205 -124 -205 -125 -10 70 118 117 197 188 230 205
52 27 90 34 100 17z m565 -569 c0 -27 -43 -75 -128 -143 -181 -143 -253 -127
-102 23 115 114 230 173 230 120z"/>
<path d="M1780 3710 c-23 -23 -24 -33 -10 -61 21 -39 90 -11 90 37 0 44 -46
58 -80 24z"/>
<path d="M2950 3710 c-23 -23 -24 -33 -10 -61 21 -39 90 -11 90 37 0 44 -46
58 -80 24z"/>
<path d="M7674 3602 c-24 -16 -35 -51 -23 -73 6 -12 7 -24 2 -28 -4 -4 -35
-31 -69 -59 -33 -29 -64 -52 -69 -52 -4 0 -26 -15 -49 -34 -81 -66 -160 -116
-183 -116 -12 0 -23 2 -23 5 0 14 40 66 72 94 38 33 178 194 178 205 0 3 -20
6 -44 6 -43 0 -49 -4 -131 -84 -135 -133 -273 -231 -317 -224 -20 3 -10 17 83
113 100 105 159 174 159 188 0 4 -21 7 -47 7 -46 0 -52 -4 -146 -86 -62 -55
-95 -90 -89 -96 6 -6 2 -27 -11 -57 -17 -43 -18 -51 -6 -77 26 -54 88 -44 192
30 68 49 73 51 64 26 -14 -36 -2 -74 27 -90 37 -19 96 7 180 78 38 31 82 66
100 77 17 10 64 45 104 77 99 79 119 74 42 -9 -101 -110 -119 -152 -84 -201
30 -43 109 -23 217 55 l47 35 0 -31 c0 -17 10 -41 23 -56 24 -28 53 -34 102
-21 l30 7 -34 -35 c-23 -24 -53 -41 -90 -52 -117 -34 -283 -136 -328 -203 -42
-63 -24 -101 50 -101 62 0 149 56 297 192 78 70 146 128 153 128 23 0 171 77
233 121 97 69 138 109 126 121 -8 8 -32 -5 -84 -44 -69 -53 -246 -158 -264
-158 -5 0 74 83 176 185 l185 185 -46 0 c-37 0 -50 -5 -61 -22 l-14 -22 -22
22 c-14 14 -34 22 -55 22 -69 0 -232 -72 -294 -130 -18 -17 -34 -30 -37 -30
-2 0 -37 -24 -76 -53 -82 -63 -153 -100 -178 -95 -13 3 10 32 91 115 59 61
107 115 107 121 0 5 -10 22 -21 37 -18 22 -27 26 -54 21 -30 -6 -32 -5 -28 17
7 38 -33 69 -63 49z m576 -110 c0 -26 -51 -83 -136 -152 -81 -65 -134 -96
-174 -101 -42 -7 -36 26 17 82 123 131 293 231 293 171z m-370 -419 c-14 -9
-66 -56 -116 -104 -85 -82 -130 -109 -181 -109 -66 0 115 153 242 205 70 29
89 32 55 8z"/>
<path d="M3791 3525 c-57 -33 -183 -144 -175 -156 9 -15 17 -11 99 52 88 67
141 97 152 85 5 -4 -8 -21 -27 -38 -137 -118 -166 -164 -144 -227 22 -63 111
-48 242 40 59 40 77 48 88 38 8 -7 30 -9 52 -7 l37 5 0 -38 c2 -109 118 -102
250 15 42 36 56 43 79 39 34 -7 96 22 183 88 69 51 150 95 160 85 5 -5 -52
-70 -231 -263 l-30 -33 53 0 c51 0 54 2 124 68 161 151 261 222 311 222 30 0
28 -3 -61 -88 -76 -72 -93 -94 -99 -125 -6 -34 -3 -43 19 -65 25 -24 28 -25
69 -13 82 25 244 148 222 170 -7 8 -28 -2 -75 -37 -82 -61 -107 -76 -146 -90
-51 -17 -41 6 27 63 95 79 139 159 112 202 -4 6 -20 16 -34 22 -35 13 -76 0
-150 -50 l-58 -39 0 35 c0 43 -34 70 -74 59 -32 -8 -134 -72 -196 -124 -25
-20 -50 -35 -57 -33 -6 2 -14 -1 -18 -6 -7 -12 -45 -15 -45 -5 0 3 11 19 25
36 31 37 41 73 29 107 -9 24 -14 26 -69 26 -73 -1 -170 -46 -237 -109 -51 -49
-108 -86 -133 -86 -12 0 -2 16 34 56 59 65 83 106 75 128 -18 46 -87 -9 -143
-113 -21 -39 -44 -66 -78 -88 -92 -60 -196 -103 -207 -85 -3 5 29 42 70 83 42
41 82 86 90 101 17 33 18 90 2 106 -19 19 -70 14 -117 -13z m674 -42 c-16 -66
-143 -192 -228 -228 -94 -39 -90 1 11 107 95 100 158 147 196 148 26 0 28 -2
21 -27z"/>
<path d="M1905 1931 c-3 -5 -7 -102 -8 -215 -3 -175 -1 -206 11 -211 25 -9 34
10 41 82 4 48 13 78 29 101 23 31 61 50 80 38 5 -3 12 -48 15 -100 7 -115 21
-149 54 -128 15 10 -8 244 -26 266 -25 30 -129 11 -144 -26 -3 -7 -6 30 -6 83
-1 59 -5 99 -13 107 -14 14 -25 15 -33 3z"/>
<path d="M2520 1921 c-6 -12 -10 -101 -10 -221 l0 -201 23 3 c21 3 22 9 28
103 9 137 10 300 3 319 -8 22 -31 20 -44 -3z"/>
<path d="M7015 1931 c-3 -5 -7 -102 -8 -215 -3 -175 -1 -206 11 -211 25 -9 34
10 41 82 4 48 13 78 29 101 23 31 61 50 80 38 5 -3 12 -48 15 -100 7 -115 21
-149 54 -128 15 10 -8 244 -26 266 -25 30 -129 11 -144 -26 -3 -7 -6 30 -6 83
-1 59 -5 99 -13 107 -14 14 -25 15 -33 3z"/>
<path d="M4388 1898 c-28 -30 -30 -37 -25 -83 6 -49 5 -50 -33 -77 -49 -34
-71 -67 -76 -115 -6 -46 23 -98 64 -114 39 -15 115 -6 150 20 29 20 31 21 37
2 9 -31 44 -56 57 -43 9 9 6 23 -11 60 -19 39 -21 53 -12 70 6 11 11 39 11 62
0 34 -3 41 -17 38 -10 -2 -22 -19 -28 -42 l-11 -40 -30 55 -30 55 29 36 c37
46 40 103 7 130 -31 25 -48 23 -82 -14z m62 -42 c0 -8 -9 -24 -20 -37 l-19
-24 -1 31 c0 31 17 57 32 48 4 -3 8 -11 8 -18z m-20 -202 l35 -65 -24 -20
c-29 -24 -97 -26 -123 -2 -31 27 -23 71 21 114 21 22 43 39 47 39 5 0 25 -30
44 -66z"/>
<path d="M4799 1883 c-18 -45 -6 -252 17 -299 28 -56 74 -84 142 -84 50 0 58
3 92 38 51 50 64 101 65 247 0 113 -1 120 -20 120 -18 0 -21 -9 -27 -114 -7
-117 -25 -190 -55 -223 -23 -26 -96 -25 -123 2 -34 34 -40 65 -40 194 0 116
-7 146 -32 146 -5 0 -13 -12 -19 -27z"/>
<path d="M6594 1895 c-4 -8 -3 -22 0 -31 8 -21 50 -14 54 10 6 31 -43 50 -54
21z"/>
<path d="M1341 1878 c-45 -22 -81 -68 -81 -104 0 -36 43 -65 121 -80 79 -15
109 -34 109 -71 0 -32 -31 -60 -80 -73 -53 -14 -97 -5 -126 27 -26 29 -54 25
-54 -7 0 -28 32 -57 77 -69 51 -14 70 -14 130 4 68 20 103 61 103 119 0 75
-39 106 -152 122 -57 7 -74 24 -58 53 22 42 55 54 125 46 60 -6 65 -5 65 13 0
43 -108 55 -179 20z"/>
<path d="M5557 1874 c-4 -4 -7 -24 -7 -45 0 -36 -1 -38 -37 -41 -30 -2 -38 -7
-38 -23 0 -15 10 -22 38 -29 l37 -10 2 -60 c1 -34 3 -82 3 -108 1 -56 16 -78
39 -59 12 10 16 40 18 124 l3 112 38 3 c33 3 38 6 35 25 -2 18 -11 23 -45 25
-41 3 -42 4 -45 45 -3 40 -22 59 -41 41z"/>
<path d="M7387 1874 c-4 -4 -7 -24 -7 -45 0 -36 -1 -38 -37 -41 -30 -2 -38 -7
-38 -23 0 -15 10 -22 38 -29 l37 -10 2 -60 c1 -34 3 -82 3 -108 1 -56 16 -78
39 -59 12 10 16 40 18 124 l3 112 38 3 c33 3 38 6 35 25 -2 18 -11 23 -45 25
-41 3 -42 4 -45 45 -3 40 -22 59 -41 41z"/>
<path d="M2946 1788 c-7 -22 -14 -221 -9 -256 4 -27 9 -33 27 -30 19 3 22 11
27 74 6 79 30 130 72 154 39 21 47 4 47 -102 0 -94 11 -138 34 -138 25 0 26
13 18 139 -7 95 -12 125 -27 141 -26 28 -76 26 -114 -5 l-30 -26 -3 28 c-3 29
-35 45 -42 21z"/>
<path d="M3826 1788 c-7 -22 -14 -221 -9 -256 4 -27 9 -33 27 -30 19 3 22 11
27 74 6 79 30 130 72 154 39 21 47 4 47 -102 0 -94 11 -138 34 -138 25 0 26
13 18 139 -7 95 -12 125 -27 141 -26 28 -76 26 -114 -5 l-30 -26 -3 28 c-3 29
-35 45 -42 21z"/>
<path d="M5206 1788 c-7 -22 -14 -221 -9 -256 4 -27 9 -33 27 -30 19 3 22 11
27 74 6 79 30 130 72 154 39 21 47 4 47 -102 0 -94 11 -138 34 -138 25 0 26
13 18 139 -7 95 -12 125 -27 141 -26 28 -76 26 -114 -5 l-30 -26 -3 28 c-3 29
-35 45 -42 21z"/>
<path d="M1666 1765 c-62 -57 -85 -168 -45 -219 25 -32 69 -56 102 -56 34 0
97 28 104 46 11 30 -14 39 -56 20 -94 -43 -156 41 -100 134 12 19 27 38 33 42
16 11 64 10 71 -2 3 -5 15 -10 26 -10 15 0 20 6 17 22 -7 50 -107 65 -152 23z"/>
<path d="M2204 1744 c-8 -56 2 -187 16 -214 14 -26 70 -40 117 -30 24 6 40 5
44 -2 3 -5 15 -8 25 -6 17 3 19 15 22 146 2 123 0 143 -13 149 -29 10 -37 -13
-42 -118 -3 -59 -11 -107 -17 -111 -18 -12 -84 -9 -93 5 -4 6 -8 59 -8 117 0
100 -1 105 -22 108 -19 3 -23 -3 -29 -44z"/>
<path d="M2644 1744 c-8 -56 2 -187 16 -214 14 -26 70 -40 117 -30 24 6 40 5
44 -2 3 -5 15 -8 25 -6 17 3 19 15 22 146 2 123 0 143 -13 149 -29 10 -37 -13
-42 -118 -3 -59 -11 -107 -17 -111 -18 -12 -84 -9 -93 5 -4 6 -8 59 -8 117 0
100 -1 105 -22 108 -19 3 -23 -3 -29 -44z"/>
<path d="M3581 1772 c-47 -25 -75 -82 -75 -150 0 -50 3 -57 37 -88 21 -20 48
-35 64 -36 81 -4 147 18 158 52 11 35 -9 46 -41 21 -19 -15 -40 -21 -78 -21
-46 1 -86 16 -86 33 0 4 33 23 73 43 91 45 107 60 107 95 0 56 -96 86 -159 51z
m111 -50 c5 -5 -22 -24 -64 -45 -40 -19 -74 -34 -76 -33 -6 7 19 57 39 77 17
17 29 20 57 15 19 -3 39 -9 44 -14z"/>
<path d="M5811 1772 c-47 -25 -75 -82 -75 -150 0 -50 3 -57 37 -88 21 -20 48
-35 64 -36 81 -4 147 18 158 52 11 35 -9 46 -41 21 -19 -15 -40 -21 -78 -21
-46 1 -86 16 -86 33 0 4 33 23 73 43 91 45 107 60 107 95 0 56 -96 86 -159 51z
m111 -50 c5 -5 -22 -24 -64 -45 -40 -19 -74 -34 -76 -33 -6 7 19 57 39 77 17
17 29 20 57 15 19 -3 39 -9 44 -14z"/>
<path d="M6141 1769 c-31 -18 -35 -19 -43 -5 -5 9 -18 16 -28 16 -19 0 -20 -8
-20 -140 0 -120 2 -142 16 -147 25 -9 34 16 34 103 0 75 2 82 28 106 15 14 37
29 49 32 19 6 23 2 31 -26 10 -40 33 -43 46 -5 8 21 7 35 -5 55 -19 35 -63 40
-108 11z"/>
<path d="M6401 1769 c-31 -18 -35 -19 -43 -5 -5 9 -18 16 -28 16 -19 0 -20 -8
-20 -140 0 -120 2 -142 16 -147 25 -9 34 16 34 103 0 75 2 82 28 106 15 14 37
29 49 32 19 6 23 2 31 -26 10 -40 33 -43 46 -5 8 21 7 35 -5 55 -19 35 -63 40
-108 11z"/>
<path d="M6776 1765 c-62 -57 -85 -168 -45 -219 25 -32 69 -56 102 -56 34 0
97 28 104 46 11 30 -14 39 -56 20 -94 -43 -156 41 -100 134 12 19 27 38 33 42
16 11 64 10 71 -2 3 -5 15 -10 26 -10 15 0 20 6 17 22 -7 50 -107 65 -152 23z"/>
<path d="M3282 1760 c-48 -29 -72 -75 -72 -138 0 -48 4 -58 34 -88 42 -42 82
-45 124 -9 l30 25 -5 -42 c-3 -24 -13 -54 -22 -68 -16 -22 -26 -25 -90 -28
-61 -2 -71 -5 -71 -21 0 -24 19 -31 86 -31 74 0 109 19 128 72 13 38 43 306
34 312 -64 43 -123 48 -176 16z m117 -34 c15 -18 -3 -112 -28 -146 -22 -30
-71 -38 -95 -15 -20 20 -21 90 -2 124 25 45 100 67 125 37z"/>
<path d="M6585 1758 c-3 -13 -5 -72 -3 -133 3 -102 4 -110 23 -110 19 0 20 9
26 120 3 66 4 126 2 133 -8 21 -42 14 -48 -10z"/>
<path d="M5055 1051 c-3 -5 -7 -102 -8 -215 -3 -175 -1 -206 11 -211 25 -9 34
10 41 82 4 48 13 78 29 101 23 31 61 50 80 38 5 -3 12 -48 15 -100 7 -115 21
-149 54 -128 15 10 -8 244 -26 266 -25 30 -129 11 -144 -26 -3 -7 -6 30 -6 83
-1 59 -5 99 -13 107 -14 14 -25 15 -33 3z"/>
<path d="M5763 1045 c-34 -15 -63 -59 -63 -98 0 -31 -20 -55 -50 -59 -17 -2
-25 -9 -25 -23 0 -15 8 -21 33 -23 l33 -3 -1 -112 c-1 -62 -1 -118 -1 -125 1
-8 10 -12 24 -10 21 3 22 7 25 131 l3 127 43 0 c48 0 74 18 54 38 -7 7 -29 12
-50 12 -35 0 -38 2 -38 28 0 40 24 69 65 76 25 5 35 12 35 25 0 32 -36 39 -87
16z"/>
<path d="M3263 1033 c-19 -7 -16 -30 11 -110 13 -38 36 -122 51 -186 16 -68
33 -118 41 -121 19 -7 44 3 44 18 0 16 94 270 96 260 1 -5 12 -64 24 -132 23
-126 42 -168 72 -157 21 8 168 362 168 406 0 20 -22 30 -39 20 -6 -4 -23 -43
-37 -86 -31 -96 -83 -227 -93 -238 -5 -5 -11 7 -14 25 -3 18 -15 86 -26 152
-26 151 -43 176 -80 115 -11 -18 -36 -83 -56 -146 -21 -63 -40 -112 -43 -109
-3 3 -18 56 -33 118 -41 161 -52 183 -86 171z"/>
<path d="M2664 1015 c-4 -8 -3 -22 0 -31 8 -21 50 -14 54 10 6 31 -43 50 -54
21z"/>
<path d="M3844 1015 c-4 -8 -3 -22 0 -31 8 -21 50 -14 54 10 6 31 -43 50 -54
21z"/>
<path d="M4297 994 c-4 -4 -7 -24 -7 -45 0 -36 -1 -38 -37 -41 -30 -2 -38 -7
-38 -23 0 -15 10 -22 38 -29 l37 -10 2 -60 c1 -34 3 -82 3 -108 1 -56 16 -78
39 -59 12 10 16 40 18 124 l3 112 38 3 c33 3 38 6 35 25 -2 18 -11 23 -45 25
-41 3 -42 4 -45 45 -3 40 -22 59 -41 41z"/>
<path d="M5987 994 c-4 -4 -7 -24 -7 -45 0 -36 -1 -38 -37 -41 -30 -2 -38 -7
-38 -23 0 -15 10 -22 38 -29 l37 -10 2 -60 c1 -34 3 -82 3 -108 1 -56 16 -78
39 -59 12 10 16 40 18 124 l3 112 38 3 c33 3 38 6 35 25 -2 18 -11 23 -45 25
-41 3 -42 4 -45 45 -3 40 -22 59 -41 41z"/>
<path d="M4583 911 c-61 -21 -82 -36 -94 -69 -16 -42 8 -74 70 -92 57 -16 78
-36 68 -65 -7 -17 -28 -17 -137 -3 -40 5 -33 -33 10 -54 66 -34 161 -13 180
38 24 61 -11 111 -95 134 -51 14 -55 23 -22 44 43 27 68 29 83 7 23 -33 46
-16 42 33 -3 36 -6 41 -28 43 -14 1 -48 -6 -77 -16z"/>
<path d="M2796 908 c-7 -22 -14 -221 -9 -256 4 -27 9 -33 27 -30 19 3 22 11
27 74 6 79 30 130 72 154 39 21 47 4 47 -102 0 -94 11 -138 34 -138 25 0 26
13 18 139 -7 95 -12 125 -27 141 -26 28 -76 26 -114 -5 l-30 -26 -3 28 c-3 29
-35 45 -42 21z"/>
<path d="M4061 889 c-31 -18 -35 -19 -43 -5 -5 9 -18 16 -28 16 -19 0 -20 -8
-20 -140 0 -120 2 -142 16 -147 25 -9 34 16 34 103 0 75 2 82 28 106 15 14 37
29 49 32 19 6 23 2 31 -26 10 -40 33 -43 46 -5 8 21 7 35 -5 55 -19 35 -63 40
-108 11z"/>
<path d="M4816 885 c-62 -57 -85 -168 -45 -219 25 -32 69 -56 102 -56 34 0 97
28 104 46 11 30 -14 39 -56 20 -94 -43 -156 41 -100 134 12 19 27 38 33 42 16
11 64 10 71 -2 3 -5 15 -10 26 -10 15 0 20 6 17 22 -7 50 -107 65 -152 23z"/>
<path d="M5424 891 c-68 -31 -105 -113 -84 -190 20 -74 76 -103 153 -76 37 13
43 12 59 -2 32 -29 42 -3 23 60 -12 42 -14 75 -9 127 l7 70 -36 15 c-47 19
-63 19 -113 -4z m90 -119 c2 -74 0 -85 -18 -98 -53 -37 -106 -1 -106 72 0 39
5 51 35 81 25 25 41 34 61 31 26 -3 26 -4 28 -86z"/>
<path d="M2655 878 c-3 -13 -5 -72 -3 -133 3 -102 4 -110 23 -110 19 0 20 9
26 120 3 66 4 126 2 133 -8 21 -42 14 -48 -10z"/>
<path d="M3835 878 c-3 -13 -5 -72 -3 -133 3 -102 4 -110 23 -110 19 0 20 9
26 120 3 66 4 126 2 133 -8 21 -42 14 -48 -10z"/>
</g>
</svg>
